<svg xmlns="http://www.w3.org/2000/svg" xmlns:xlink="http://www.w3.org/1999/xlink" width="2702pt" height="2016" viewBox="0 0 2702.15 1511.91"><g id="graph0" class="graph" transform="scale(1 1) rotate(0) translate(4 1507.91)"><title>controllers_diagram</title><polygon fill="#fff" stroke="#fff" points="-4 5 -4 -1507.91 2699.15 -1507.91 2699.15 5 -4 5"/><g id="node1" class="node"><title>_diagram_info</title><text x="1784" y="-63.6" font-family="Times,serif" font-size="13" text-anchor="start">Controllers diagram</text><text x="1784" y="-49.6" font-family="Times,serif" font-size="13" text-anchor="start">Date: Dec 24 2012 - 21:07</text><text x="1784" y="-35.6" font-family="Times,serif" font-size="13" text-anchor="start">Migration version: 20121225020158</text><text x="1784" y="-21.6" font-family="Times,serif" font-size="13" text-anchor="start">Generated by RailRoady 1.1.0</text><text x="1784" y="-7.6" font-family="Times,serif" font-size="13" text-anchor="start">http://railroady.prestonlee.com</text></g><g id="node2" class="node"><title>AddendumsController</title><ellipse cx="144.689" cy="-278.446" fill="none" stroke="#000" rx="92.084" ry="18"/><text x="144.689" y="-274.746" font-family="Times,serif" font-size="14" text-anchor="middle">AddendumsController</text></g><g id="node3" class="node"><title>ApplicationController</title><ellipse cx="1364.94" cy="-920.429" fill="none" stroke="#000" rx="90.984" ry="18"/><text x="1364.94" y="-916.729" font-family="Times,serif" font-size="14" text-anchor="middle">ApplicationController</text></g><g id="edge1" class="edge"><title>ApplicationController-&gt;AddendumsController</title><path fill="none" stroke="#000" d="M1332.62,-903.423C1160.09,-812.654 349.133,-386.005 176.896,-295.39"/></g><g id="node4" class="node"><title>BusinessesController</title><ellipse cx="1269.82" cy="-186.171" fill="none" stroke="#000" rx="87.985" ry="18"/><text x="1269.82" y="-182.471" font-family="Times,serif" font-size="14" text-anchor="middle">BusinessesController</text></g><g id="edge2" class="edge"><title>ApplicationController-&gt;BusinessesController</title><path fill="none" stroke="#000" d="M1359.48,-902.252C1349.29,-866.339 1328.76,-783.658 1332.94,-713.138 1338.47,-619.895 1400.19,-603.444 1389.31,-510.673 1388.39,-502.779 1383.94,-502.264 1380.66,-495.022 1332.18,-387.837 1289.79,-252.611 1275.21,-204.325"/></g><g id="node5" class="node"><title>DailyDataController</title><ellipse cx="987.414" cy="-1463.15" fill="none" stroke="#000" rx="85.585" ry="18"/><text x="987.414" y="-1459.45" font-family="Times,serif" font-size="14" text-anchor="middle">DailyDataController</text></g><g id="edge3" class="edge"><title>ApplicationController-&gt;DailyDataController</title><path fill="none" stroke="#000" d="M1349.61,-938.372C1316.99,-976.843 1238.92,-1070.56 1180.11,-1154.1 1104.95,-1260.86 1025.66,-1396.48 997.811,-1444.93"/></g><g id="node6" class="node"><title>DailyDataDeliveryExceptionsController</title><ellipse cx="1837.82" cy="-828.607" fill="none" stroke="#000" rx="157.872" ry="18"/><text x="1837.82" y="-824.907" font-family="Times,serif" font-size="14" text-anchor="middle">DailyDataDeliveryExceptionsController</text></g><g id="edge4" class="edge"><title>ApplicationController-&gt;DailyDataDeliveryExceptionsController</title><path fill="none" stroke="#000" d="M1447.82,-912.973C1509.03,-906.592 1594.15,-895.88 1667.76,-879.955 1709.06,-871.021 1754.86,-856.944 1788.52,-845.786"/></g><g id="node7" class="node"><title>DailyDataEmployeesController</title><ellipse cx="908.178" cy="-826.75" fill="none" stroke="#000" rx="126.178" ry="18"/><text x="908.178" y="-823.05" font-family="Times,serif" font-size="14" text-anchor="middle">DailyDataEmployeesController</text></g><g id="edge5" class="edge"><title>ApplicationController-&gt;DailyDataEmployeesController</title><path fill="none" stroke="#000" d="M1301.43,-907.403C1217.23,-890.134 1069,-859.734 980.561,-841.595"/></g><g id="node8" class="node"><title>DailyDataVehiclesController</title><ellipse cx="668.277" cy="-212.425" fill="none" stroke="#000" rx="117.779" ry="18"/><text x="668.277" y="-208.725" font-family="Times,serif" font-size="14" text-anchor="middle">DailyDataVehiclesController</text></g><g id="edge6" class="edge"><title>ApplicationController-&gt;DailyDataVehiclesController</title><path fill="none" stroke="#000" d="M1361.24,-902.37C1353.42,-867.431 1332.68,-789.249 1293.89,-734.961 1202.26,-606.72 796.433,-306.034 692.559,-230.09"/></g><g id="node9" class="node"><title>DeliveryExceptionsController</title><ellipse cx="2105.35" cy="-629.08" fill="none" stroke="#000" rx="120.479" ry="18"/><text x="2105.35" y="-625.38" font-family="Times,serif" font-size="14" text-anchor="middle">DeliveryExceptionsController</text></g><g id="edge7" class="edge"><title>ApplicationController-&gt;DeliveryExceptionsController</title><path fill="none" stroke="#000" d="M1404.06,-904.009C1437.61,-889.99 1487.29,-869.391 1530.83,-851.966 1727.74,-773.147 1964.22,-682.736 2060.89,-645.957"/></g><g id="node10" class="node"><title>EmployeeManagerAssignmentsController</title><ellipse cx="1223.28" cy="-510.628" fill="none" stroke="#000" rx="164.371" ry="18"/><text x="1223.28" y="-506.928" font-family="Times,serif" font-size="14" text-anchor="middle">EmployeeManagerAssignmentsController</text></g><g id="edge8" class="edge"><title>ApplicationController-&gt;EmployeeManagerAssignmentsController</title><path fill="none" stroke="#000" d="M1358.67,-902.292C1335.27,-834.6 1253.18,-597.137 1229.64,-529.021"/></g><g id="node11" class="node"><title>EmployeePaysController</title><ellipse cx="1760.17" cy="-223.483" fill="none" stroke="#000" rx="102.082" ry="18"/><text x="1760.17" y="-219.783" font-family="Times,serif" font-size="14" text-anchor="middle">EmployeePaysController</text></g><g id="edge9" class="edge"><title>ApplicationController-&gt;EmployeePaysController</title><path fill="none" stroke="#000" d="M1383.78,-902.546C1418.92,-868.428 1495.31,-790.556 1544.12,-713.458 1652.28,-542.616 1732.6,-308.391 1754.32,-241.804"/></g><g id="node12" class="node"><title>EmployeePsasController</title><ellipse cx="1483.65" cy="-495.088" fill="none" stroke="#000" rx="101.282" ry="18"/><text x="1483.65" y="-491.388" font-family="Times,serif" font-size="14" text-anchor="middle">EmployeePsasController</text></g><g id="edge10" class="edge"><title>ApplicationController-&gt;EmployeePsasController</title><path fill="none" stroke="#000" d="M1357.54,-902.238C1343.79,-865.961 1317.09,-782.166 1332.94,-713.138 1352.73,-627.027 1427.61,-547.429 1463.81,-513.013"/></g><g id="node13" class="node"><title>EmployeeTerminalsController</title><ellipse cx="122.189" cy="-827.873" fill="none" stroke="#000" rx="122.379" ry="18"/><text x="122.189" y="-824.173" font-family="Times,serif" font-size="14" text-anchor="middle">EmployeeTerminalsController</text></g><g id="edge11" class="edge"><title>ApplicationController-&gt;EmployeeTerminalsController</title><path fill="none" stroke="#000" d="M1279.52,-914.067C1059.76,-897.7 474.987,-854.149 231.239,-835.995"/></g><g id="node14" class="node"><title>EmployeesController</title><ellipse cx="2605.76" cy="-828.856" fill="none" stroke="#000" rx="88.284" ry="18"/><text x="2605.76" y="-825.156" font-family="Times,serif" font-size="14" text-anchor="middle">EmployeesController</text></g><g id="edge12" class="edge"><title>ApplicationController-&gt;EmployeesController</title><path fill="none" stroke="#000" d="M1450.23,-914.135C1677.73,-897.345 2296.98,-851.644 2522.33,-835.013"/></g><g id="node15" class="node"><title>FedexContractsController</title><ellipse cx="2123.88" cy="-1020.08" fill="none" stroke="#000" rx="105.082" ry="18"/><text x="2123.88" y="-1016.38" font-family="Times,serif" font-size="14" text-anchor="middle">FedexContractsController</text></g><g id="edge13" class="edge"><title>ApplicationController-&gt;FedexContractsController</title><path fill="none" stroke="#000" d="M1440.83,-930.395C1583.68,-949.152 1891.45,-989.565 2040.12,-1009.09"/></g><g id="node16" class="node"><title>FlatPaysController</title><ellipse cx="1470.96" cy="-1459.86" fill="none" stroke="#000" rx="79.087" ry="18"/><text x="1470.96" y="-1456.16" font-family="Times,serif" font-size="14" text-anchor="middle">FlatPaysController</text></g><g id="edge14" class="edge"><title>ApplicationController-&gt;FlatPaysController</title><path fill="none" stroke="#000" d="M1368.53,-938.686C1384.75,-1021.23 1451.15,-1359.07 1467.37,-1441.61"/></g><g id="node17" class="node"><title>FrequenciesController</title><ellipse cx="1740.6" cy="-577.531" fill="none" stroke="#000" rx="92.084" ry="18"/><text x="1740.6" y="-573.831" font-family="Times,serif" font-size="14" text-anchor="middle">FrequenciesController</text></g><g id="edge15" class="edge"><title>ApplicationController-&gt;FrequenciesController</title><path fill="none" stroke="#000" d="M1384.35,-902.715C1448.95,-843.745 1656.32,-654.461 1721.09,-595.344"/></g><g id="node18" class="node"><title>HomeController</title><ellipse cx="2076.54" cy="-211.067" fill="none" stroke="#000" rx="70.388" ry="18"/><text x="2076.54" y="-207.367" font-family="Times,serif" font-size="14" text-anchor="middle">HomeController</text></g><g id="edge16" class="edge"><title>ApplicationController-&gt;HomeController</title><path fill="none" stroke="#000" d="M1381.18,-902.506C1413.14,-867.046 1486.15,-785.157 1544.12,-713.458 1591.72,-654.581 1594.79,-632.568 1646.71,-577.459 1787.58,-427.937 1985.75,-277.763 2053.09,-228.141"/></g><g id="node19" class="node"><title>NotesController</title><ellipse cx="655.926" cy="-1446.38" fill="none" stroke="#000" rx="69.588" ry="18"/><text x="655.926" y="-1442.68" font-family="Times,serif" font-size="14" text-anchor="middle">NotesController</text></g><g id="edge17" class="edge"><title>ApplicationController-&gt;NotesController</title><path fill="none" stroke="#000" d="M1341.35,-937.928C1233.22,-1018.14 785.689,-1350.12 678.887,-1429.34"/></g><g id="node20" class="node"><title>PayProfilesController</title><ellipse cx="140.992" cy="-1378.76" fill="none" stroke="#000" rx="89.885" ry="18"/><text x="140.992" y="-1375.06" font-family="Times,serif" font-size="14" text-anchor="middle">PayProfilesController</text></g><g id="edge18" class="edge"><title>ApplicationController-&gt;PayProfilesController</title><path fill="none" stroke="#000" d="M1322.11,-936.383C1237.08,-968.06 1040.96,-1041.16 876.193,-1102.82 612.526,-1201.5 295.855,-1320.53 183.251,-1362.87"/></g><g id="node21" class="node"><title>PaysController</title><ellipse cx="610.875" cy="-1019.61" fill="none" stroke="#000" rx="64.989" ry="18"/><text x="610.875" y="-1015.91" font-family="Times,serif" font-size="14" text-anchor="middle">PaysController</text></g><g id="edge19" class="edge"><title>ApplicationController-&gt;PaysController</title><path fill="none" stroke="#000" d="M1296.32,-932.323C1263.41,-937.855 1223.4,-944.329 1187.37,-949.464 999.716,-976.21 776.771,-1001.5 671.572,-1013.05"/></g><g id="node22" class="node"><title>ProductionPaysController</title><ellipse cx="1187" cy="-734.799" fill="none" stroke="#000" rx="105.082" ry="18"/><text x="1187" y="-731.099" font-family="Times,serif" font-size="14" text-anchor="middle">ProductionPaysController</text></g><g id="edge20" class="edge"><title>ApplicationController-&gt;ProductionPaysController</title><path fill="none" stroke="#000" d="M1347.88,-902.63C1313.95,-867.239 1238.37,-788.386 1204.27,-752.817"/></g><g id="node23" class="node"><title>PsaStatesController</title><ellipse cx="611.204" cy="-636.131" fill="none" stroke="#000" rx="82.585" ry="18"/><text x="611.204" y="-632.431" font-family="Times,serif" font-size="14" text-anchor="middle">PsaStatesController</text></g><g id="edge21" class="edge"><title>ApplicationController-&gt;PsaStatesController</title><path fill="none" stroke="#000" d="M1322.53,-904.432C1189.85,-854.388 783.727,-701.205 652.539,-651.722"/></g><g id="node24" class="node"><title>PsasController</title><ellipse cx="1724.04" cy="-1467.41" fill="none" stroke="#000" rx="64.189" ry="18"/><text x="1724.04" y="-1463.71" font-family="Times,serif" font-size="14" text-anchor="middle">PsasController</text></g><g id="edge22" class="edge"><title>ApplicationController-&gt;PsasController</title><path fill="none" stroke="#000" d="M1369.8,-938.58C1380.12,-975.451 1406.39,-1061.08 1443.91,-1125.56 1523.98,-1263.17 1658.29,-1402.29 1706.3,-1450.07"/></g><g id="node25" class="node"><title>PsazipsController</title><ellipse cx="2064.66" cy="-1447.25" fill="none" stroke="#000" rx="75.287" ry="18"/><text x="2064.66" y="-1443.55" font-family="Times,serif" font-size="14" text-anchor="middle">PsazipsController</text></g><g id="edge23" class="edge"><title>ApplicationController-&gt;PsazipsController</title><path fill="none" stroke="#000" d="M1388.22,-937.957C1494.81,-1018.21 1935.61,-1350.09 2041.64,-1429.92"/></g><g id="node26" class="node"><title>RegionsController</title><ellipse cx="1240.14" cy="-1485.91" fill="none" stroke="#000" rx="77.986" ry="18"/><text x="1240.14" y="-1482.21" font-family="Times,serif" font-size="14" text-anchor="middle">RegionsController</text></g><g id="edge24" class="edge"><title>ApplicationController-&gt;RegionsController</title><path fill="none" stroke="#000" d="M1360.93,-938.603C1342.13,-1023.77 1262.9,-1382.79 1244.13,-1467.81"/></g><g id="node27" class="node"><title>RolesController</title><ellipse cx="1516.36" cy="-166" fill="none" stroke="#000" rx="68.788" ry="18"/><text x="1516.36" y="-162.3" font-family="Times,serif" font-size="14" text-anchor="middle">RolesController</text></g><g id="edge25" class="edge"><title>ApplicationController-&gt;RolesController</title><path fill="none" stroke="#000" d="M1359.48,-902.252C1349.29,-866.339 1328.76,-783.658 1332.94,-713.138 1338.47,-619.895 1400.19,-603.444 1389.31,-510.673 1388.39,-502.779 1381.11,-502.957 1380.66,-495.022 1373.4,-367.633 1466.15,-231.674 1502.29,-183.859"/></g><g id="node28" class="node"><title>ServiceTypesController</title><ellipse cx="2587.69" cy="-1379.77" fill="none" stroke="#000" rx="97.483" ry="18"/><text x="2587.69" y="-1376.07" font-family="Times,serif" font-size="14" text-anchor="middle">ServiceTypesController</text></g><g id="edge26" class="edge"><title>ApplicationController-&gt;ServiceTypesController</title><path fill="none" stroke="#000" d="M1408.87,-936.29C1493.2,-966.792 1683.59,-1035.89 1843.24,-1095.6 2111.14,-1195.78 2431.88,-1319.49 2545.37,-1363.39"/></g><g id="node29" class="node"><title>StatesController</title><ellipse cx="1137.34" cy="-935.53" fill="none" stroke="#000" rx="69.588" ry="18"/><text x="1137.34" y="-931.83" font-family="Times,serif" font-size="14" text-anchor="middle">StatesController</text></g><g id="edge27" class="edge"><title>ApplicationController-&gt;StatesController</title><path fill="none" stroke="#000" d="M1278.57,-926.159C1254.17,-927.778 1227.99,-929.515 1204.87,-931.049"/></g><g id="node30" class="node"><title>TerminalsController</title><ellipse cx="949.661" cy="-551.522" fill="none" stroke="#000" rx="85.285" ry="18"/><text x="949.661" y="-547.822" font-family="Times,serif" font-size="14" text-anchor="middle">TerminalsController</text></g><g id="edge28" class="edge"><title>ApplicationController-&gt;TerminalsController</title><path fill="none" stroke="#000" d="M1330.92,-903.642C1274.41,-874.642 1159.55,-810.882 1080.11,-734.637 1025.62,-682.336 978.976,-604.481 959.447,-569.584"/></g><g id="node31" class="node"><title>UserRolesController</title><ellipse cx="2590.32" cy="-281.485" fill="none" stroke="#000" rx="85.585" ry="18"/><text x="2590.32" y="-277.785" font-family="Times,serif" font-size="14" text-anchor="middle">UserRolesController</text></g><g id="edge29" class="edge"><title>ApplicationController-&gt;UserRolesController</title><path fill="none" stroke="#000" d="M1397.4,-903.503C1570.75,-813.115 2385.91,-388.071 2558.26,-298.202"/></g><g id="node32" class="node"><title>UsersController</title><ellipse cx="1514.4" cy="-1125.67" fill="none" stroke="#000" rx="68.788" ry="18"/><text x="1514.4" y="-1121.97" font-family="Times,serif" font-size="14" text-anchor="middle">UsersController</text></g><g id="edge30" class="edge"><title>ApplicationController-&gt;UsersController</title><path fill="none" stroke="#000" d="M1377.94,-938.284C1406.21,-977.1 1472.99,-1068.8 1501.33,-1107.71"/></g><g id="node33" class="node"><title>VehicleFuelsController</title><ellipse cx="1599.29" cy="-865.96" fill="none" stroke="#000" rx="96.383" ry="18"/><text x="1599.29" y="-862.26" font-family="Times,serif" font-size="14" text-anchor="middle">VehicleFuelsController</text></g><g id="edge31" class="edge"><title>ApplicationController-&gt;VehicleFuelsController</title><path fill="none" stroke="#000" d="M1424.08,-906.684C1459.2,-898.522 1503.62,-888.197 1538.95,-879.985"/></g><g id="node34" class="node"><title>VehicleOdometersController</title><ellipse cx="1008.02" cy="-194.159" fill="none" stroke="#000" rx="116.18" ry="18"/><text x="1008.02" y="-190.459" font-family="Times,serif" font-size="14" text-anchor="middle">VehicleOdometersController</text></g><g id="edge32" class="edge"><title>ApplicationController-&gt;VehicleOdometersController</title><path fill="none" stroke="#000" d="M1360.86,-902.315C1352.47,-867.613 1330.85,-790.299 1293.89,-734.961 1213.38,-614.441 1124.58,-638.928 1057.24,-510.583 1003.39,-407.935 1004.61,-262.596 1006.91,-212.196"/></g><g id="node35" class="node"><title>VehicleTypesController</title><ellipse cx="946.468" cy="-1116.82" fill="none" stroke="#000" rx="98.583" ry="18"/><text x="946.468" y="-1113.12" font-family="Times,serif" font-size="14" text-anchor="middle">VehicleTypesController</text></g><g id="edge33" class="edge"><title>ApplicationController-&gt;VehicleTypesController</title><path fill="none" stroke="#000" d="M1329.26,-937.173C1250.3,-974.231 1061.51,-1062.83 982.353,-1099.98"/></g><g id="node36" class="node"><title>VehiclesController</title><ellipse cx="1785.21" cy="-1109.37" fill="none" stroke="#000" rx="79.886" ry="18"/><text x="1785.21" y="-1105.67" font-family="Times,serif" font-size="14" text-anchor="middle">VehiclesController</text></g><g id="edge34" class="edge"><title>ApplicationController-&gt;VehiclesController</title><path fill="none" stroke="#000" d="M1401.87,-937.03C1481.79,-972.959 1669.95,-1057.55 1749.11,-1093.14"/></g><g id="node37" class="node"><title>WeeklyReviewController</title><ellipse cx="1438.53" cy="-713.298" fill="none" stroke="#000" rx="103.982" ry="18"/><text x="1438.53" y="-709.598" font-family="Times,serif" font-size="14" text-anchor="middle">WeeklyReviewController</text></g><g id="edge35" class="edge"><title>ApplicationController-&gt;WeeklyReviewController</title><path fill="none" stroke="#000" d="M1371.34,-902.41C1385.26,-863.237 1418.14,-770.692 1432.09,-731.423"/></g><g id="node38" class="node"><title>ZipsController</title><ellipse cx="1246.06" cy="-1154.22" fill="none" stroke="#000" rx="64.189" ry="18"/><text x="1246.06" y="-1150.52" font-family="Times,serif" font-size="14" text-anchor="middle">ZipsController</text></g><g id="edge36" class="edge"><title>ApplicationController-&gt;ZipsController</title><path fill="none" stroke="#000" d="M1355.81,-938.386C1333.68,-981.905 1277.38,-1092.62 1255.22,-1136.21"/></g></g></svg>